PathFileType	4	(X/Y/Z)	./resultDataOpenSim/trcMotMarkerGrf/sub06/qtm-03-07.trc
DataRate	CameraRate	NumFrames	NumMarkers	Units	OrigDataRate	OrigDataStartFrame	OrigNumFrames
250.000000	250.000000	10	24	m	250.000000	123	488
Frame#	Time	L.Toe.Tip			R.Toe.Tip			L.Ankle.Lat			R.Ankle.Lat			L.Ankle.Med			R.Ankle.Med			L.Heel			R.Heel			L.Knee.Lat			R.Knee.Lat			L.Knee.Med			R.Knee.Med			L.Thigh.Upper			R.Thigh.Upper			L.ASIS			R.ASIS			V.Sacral			L.Acromium			R.Acromium			C7			L.Elbow			R.Elbow			L.Wrist.Lat			R.Wrist.Lat
		X1	Y1	Z1	X2	Y2	Z2	X3	Y3	Z3	X4	Y4	Z4	X5	Y5	Z5	X6	Y6	Z6	X7	Y7	Z7	X8	Y8	Z8	X9	Y9	Z9	X10	Y10	Z10	X11	Y11	Z11	X12	Y12	Z12	X13	Y13	Z13	X14	Y14	Z14	X15	Y15	Z15	X16	Y16	Z16	X17	Y17	Z17	X18	Y18	Z18	X19	Y19	Z19	X20	Y20	Z20	X21	Y21	Z21	X22	Y22	Z22	X23	Y23	Z23	X24	Y24	Z24

123	0.488	-0.09604632	0.10681345	-0.029855341	-0.74195424	0.035935978	0.13862248	-0.22318712	0.089924631	-0.043916112	-0.87263973	0.075487071	0.14714056	-0.22325082	0.10719482	0.040037348	-0.84164489	0.08969171	0.06293922	-0.27259889	0.031836514	0.0084048002	-0.92488131	0.057331928	0.079848726	-0.33431169	0.44208439	-0.05063432	-0.6897269	0.42252104	0.18211185	-0.3473951	0.43355698	0.07317683	-0.70952807	0.42185403	0.049462103	-0.51971643	0.78709483	-0.103454	-0.57958079	0.7693665	0.24586283	-0.45857412	0.83036025	-0.050045218	-0.47245549	0.82019311	0.19926175	-0.65027288	0.90129315	0.072679109	-0.54277291	1.3100341	-0.11549561	-0.51251383	1.301283	0.24372746	-0.60739768	1.3405823	0.070246554	-0.65594101	1.0188128	-0.15261468	-0.53136013	0.98835976	0.34448783	-0.58885804	0.79145432	-0.21673611	-0.29756569	0.89961927	0.30527029
124	0.492	-0.084651587	0.10782932	-0.029676273	-0.74195034	0.035889165	0.13856779	-0.21148261	0.089285582	-0.043770296	-0.8722823	0.075872798	0.14701111	-0.21203104	0.10640886	0.040204755	-0.8410574	0.089788862	0.062707443	-0.26038019	0.03041163	0.0081895453	-0.92464012	0.057987586	0.07963993	-0.32635253	0.43974251	-0.050333611	-0.68562611	0.42097117	0.18188244	-0.34031896	0.43065404	0.073689438	-0.70509497	0.42046304	0.049170347	-0.51200973	0.78390587	-0.10353077	-0.57828901	0.76946923	0.24837883	-0.45110263	0.82749252	-0.049896183	-0.46611837	0.81748954	0.19945669	-0.64374479	0.89891206	0.072172243	-0.5365975	1.3071436	-0.11586615	-0.50647996	1.2986439	0.24365421	-0.6014457	1.3380016	0.069977162	-0.65041968	1.0164191	-0.15263313	-0.52368272	0.98558367	0.34462698	-0.585711	0.78876448	-0.21777139	-0.28925359	0.89900268	0.30449931
125	0.496	-0.073708375	0.10841612	-0.029425441	-0.7419461	0.035848455	0.13852827	-0.20023554	0.088435648	-0.043550862	-0.87192625	0.076318754	0.14691491	-0.20112679	0.10550133	0.04045865	-0.84041726	0.089941141	0.062525392	-0.24871437	0.028949852	0.0081847678	-0.92442468	0.058772989	0.079521221	-0.31835842	0.43746934	-0.050072333	-0.6814344	0.41939175	0.18170048	-0.33320592	0.42778061	0.074118824	-0.70053868	0.41902543	0.048939604	-0.50424855	0.78073002	-0.10360067	-0.57608497	0.76907111	0.25033502	-0.44358188	0.82454333	-0.049706771	-0.45977091	0.8148401	0.19959821	-0.63784834	0.8965344	0.07135473	-0.53037897	1.3042142	-0.11624517	-0.5004383	1.2959592	0.2435795	-0.59541291	1.3354175	0.06967012	-0.64485752	1.0139784	-0.1526789	-0.51601526	0.98278234	0.34473302	-0.58235995	0.78605463	-0.21875487	-0.28098749	0.89827908	0.30373805
126	0.5	-0.063205552	0.10852296	-0.029076967	-0.74194056	0.03581793	0.13850565	-0.18944966	0.087362185	-0.043290458	-0.87156385	0.076822466	0.14685454	-0.19063845	0.10441609	0.040739712	-0.83981769	0.090149453	0.062425152	-0.23755915	0.027388152	0.0083912046	-0.92427614	0.05971234	0.079527504	-0.31029508	0.43528922	-0.049825668	-0.67717157	0.41779744	0.18156481	-0.32601829	0.42497842	0.074460115	-0.6958498	0.41753274	0.048759308	-0.49639332	0.77759157	-0.10366365	-0.57202316	0.76762689	0.25116628	-0.43598942	0.82153001	-0.049487438	-0.45342536	0.81225405	0.19969131	-0.63232122	0.89422363	0.070381057	-0.52411293	1.3012521	-0.11663442	-0.49439063	1.293242	0.24350893	-0.58930201	1.3328486	0.069319837	-0.63924521	1.0114965	-0.15275483	-0.5083665	0.97995484	0.34482193	-0.57871831	0.78335554	-0.21966041	-0.27276972	0.89744133	0.30298181
127	0.504	-0.053150159	0.10814417	-0.02862641	-0.7419393	0.035796868	0.13849981	-0.17912764	0.086056028	-0.043011786	-0.87116837	0.077395722	0.14684491	-0.18067096	0.10311222	0.041003116	-0.83932045	0.090446168	0.062433488	-0.22687287	0.025665578	0.0088128829	-0.92415843	0.060779049	0.079630899	-0.30216808	0.43319078	-0.049597324	-0.6728637	0.41620046	0.18146624	-0.31872482	0.42228448	0.074727602	-0.69101921	0.41598629	0.048601242	-0.48841561	0.7744914	-0.10372662	-0.56637453	0.76535851	0.25101983	-0.42836138	0.81847113	-0.049246344	-0.4470803	0.80973306	0.19977271	-0.62623955	0.89172065	0.069045165	-0.51781402	1.2982718	-0.11704517	-0.48833776	1.2905025	0.24344625	-0.58311824	1.3302934	0.068929558	-0.63357923	1.0089773	-0.15286661	-0.50073395	0.9770931	0.34490404	-0.5748707	0.78066717	-0.22051465	-0.26460119	0.89649467	0.30223211
128	0.508	-0.043542581	0.10731398	-0.028071191	-0.74194659	0.035782435	0.13850848	-0.16927429	0.08452299	-0.04272965	-0.87072252	0.078052224	0.14689817	-0.17123551	0.10157604	0.041247288	-0.83887109	0.090840034	0.062512009	-0.21670114	0.023771201	0.0093258875	-0.92396682	0.06191674	0.079743982	-0.29399663	0.43113892	-0.04940111	-0.66851572	0.41460506	0.18140883	-0.31131018	0.41971589	0.074937888	-0.68605157	0.41438529	0.048447209	-0.48033967	0.77143168	-0.10379062	-0.55935758	0.76252738	0.24995555	-0.42070783	0.81537766	-0.048982746	-0.44072715	0.80723782	0.19989671	-0.61864632	0.88871513	0.067031761	-0.51151067	1.2952978	-0.11748845	-0.48228574	1.2877471	0.24338445	-0.57687548	1.3277298	0.068513329	-0.62786458	1.0064241	-0.15301683	-0.4931102	0.97420691	0.34496834	-0.57098945	0.77796905	-0.22136667	-0.25647716	0.89544522	0.30148978
129	0.512	-0.03438194	0.10608319	-0.027409305	-0.74195949	0.035770495	0.13852523	-0.15989797	0.082778022	-0.042453497	-0.87022774	0.078794187	0.14701753	-0.16228892	0.099800082	0.041488335	-0.83836648	0.091302169	0.062581539	-0.20714964	0.021733259	0.009695526	-0.92365951	0.063114985	0.079844711	-0.28579461	0.42909281	-0.049245271	-0.66411397	0.41300941	0.18140424	-0.30377579	0.41726076	0.075098564	-0.68097852	0.41272772	0.048309055	-0.47225769	0.76843482	-0.10384932	-0.55100417	0.75926032	0.2479164	-0.41300229	0.81225539	-0.048691347	-0.43435136	0.80467177	0.2001303	-0.60969383	0.88530384	0.064478306	-0.505221	1.2923512	-0.11796777	-0.47625399	1.284982	0.24331073	-0.57058309	1.3251425	0.068077455	-0.62210505	1.0038418	-0.15320102	-0.4854941	0.97132499	0.34499792	-0.56720386	0.775246	-0.22225479	-0.2483859	0.89429515	0.30075512
130	0.516	-0.025674798	0.10449741	-0.026643984	-0.74196648	0.035755005	0.13854037	-0.15100358	0.080830699	-0.042182512	-0.86969571	0.079613994	0.14720157	-0.15380104	0.097778119	0.041736512	-0.83776765	0.09182769	0.062617173	-0.19826473	0.019562182	0.0098025315	-0.92330497	0.064430946	0.080006569	-0.27756428	0.42702514	-0.049129028	-0.65964784	0.41141289	0.18145191	-0.2961336	0.41488998	0.075210925	-0.67585482	0.41101563	0.048221508	-0.46425814	0.7655246	-0.10390609	-0.54204468	0.7558877	0.24536304	-0.40523901	0.80911111	-0.048372386	-0.42793483	0.80190982	0.20055711	-0.60053124	0.88193883	0.061999913	-0.49893179	1.2894247	-0.11847021	-0.47028851	1.282214	0.24321801	-0.56424515	1.3225361	0.067617561	-0.61628004	1.0012364	-0.1534085	-0.47788647	0.96846846	0.34498826	-0.56353749	0.7724982	-0.22319299	-0.24031308	0.89304506	0.30002923
131	0.52	-0.017430191	0.1025828	-0.025785715	-0.74195356	0.035730923	0.13854749	-0.14258832	0.078678226	-0.041904609	-0.86913392	0.080504948	0.14744801	-0.14576292	0.095512007	0.041996211	-0.83708945	0.092439501	0.062672622	-0.19000574	0.017238373	0.0097242061	-0.92299163	0.065934875	0.08030222	-0.26930037	0.42493318	-0.049048816	-0.65511689	0.40981977	0.18154323	-0.28839622	0.41257578	0.07527058	-0.67072669	0.40925352	0.048215518	-0.4563397	0.76270559	-0.10397571	-0.53378763	0.75285155	0.24321518	-0.39744289	0.80595648	-0.048029903	-0.42147363	0.79889035	0.20122425	-0.59207532	0.87895146	0.060201812	-0.49260873	1.2864873	-0.11896938	-0.46443255	1.2794539	0.24310934	-0.55787209	1.3199164	0.067133982	-0.61033762	0.99861502	-0.15362743	-0.47028118	0.96563763	0.34494192	-0.55991145	0.76973337	-0.22416417	-0.23225685	0.89169538	0.29931312
132	0.524	-0.0096539987	0.10034284	-0.024851717	-0.74191925	0.035700999	0.13855261	-0.13464816	0.076312312	-0.041610527	-0.86853937	0.08146491	0.14775372	-0.13817743	0.093012502	0.042268084	-0.83634909	0.093146004	0.062816373	-0.18231346	0.014743817	0.0095982377	-0.92271729	0.067632264	0.080728286	-0.26098773	0.42283658	-0.049000166	-0.65051979	0.40823679	0.18167649	-0.28056625	0.41030461	0.0752698	-0.66558053	0.40744644	0.048311204	-0.44841936	0.75997543	-0.10407052	-0.52694093	0.75027748	0.24202666	-0.3896429	0.80281002	-0.047669127	-0.41498198	0.79572723	0.20204717	-0.58435827	0.87632766	0.059396424	-0.48622995	1.2835233	-0.11944963	-0.45865082	1.2767186	0.24298836	-0.55147659	1.3172802	0.066633241	-0.60424651	0.99599259	-0.15385284	-0.46266825	0.96282281	0.34485856	-0.55615855	0.76696609	-0.22512032	-0.22424356	0.89025108	0.29861161
